<?xml version="1.0" encoding="UTF-8"?>
<svg xmlns="http://www.w3.org/2000/svg" version="1.1" width="150" height="150" viewBox="0 0 150 150"><rect x="0" y="0" width="150" height="150" fill="#ffffff"/><g transform="scale(4.054)"><g transform="translate(0,0)"><path fill-rule="evenodd" d="M9 0L9 1L8 1L8 2L9 2L9 3L8 3L8 4L10 4L10 7L11 7L11 4L12 4L12 5L13 5L13 6L12 6L12 9L14 9L14 10L15 10L15 11L14 11L14 12L15 12L15 14L14 14L14 13L12 13L12 11L13 11L13 10L10 10L10 9L11 9L11 8L6 8L6 9L5 9L5 8L0 8L0 10L1 10L1 9L2 9L2 11L3 11L3 12L1 12L1 11L0 11L0 14L1 14L1 15L0 15L0 17L1 17L1 18L3 18L3 19L4 19L4 18L3 18L3 16L4 16L4 17L7 17L7 18L5 18L5 19L7 19L7 18L8 18L8 20L5 20L5 21L3 21L3 20L2 20L2 19L1 19L1 23L0 23L0 24L1 24L1 23L2 23L2 25L0 25L0 29L1 29L1 26L2 26L2 29L5 29L5 28L6 28L6 29L8 29L8 31L9 31L9 27L10 27L10 26L11 26L11 28L10 28L10 30L11 30L11 29L12 29L12 30L13 30L13 31L12 31L12 33L13 33L13 32L14 32L14 33L15 33L15 32L14 32L14 31L17 31L17 29L19 29L19 30L18 30L18 31L19 31L19 30L20 30L20 31L21 31L21 32L23 32L23 30L25 30L25 31L27 31L27 29L28 29L28 32L24 32L24 33L23 33L23 34L21 34L21 33L19 33L19 34L18 34L18 36L17 36L17 33L16 33L16 34L15 34L15 35L14 35L14 36L15 36L15 37L16 37L16 36L17 36L17 37L18 37L18 36L19 36L19 37L20 37L20 36L22 36L22 37L23 37L23 36L24 36L24 37L28 37L28 36L29 36L29 35L30 35L30 37L32 37L32 36L34 36L34 37L37 37L37 33L35 33L35 32L37 32L37 30L35 30L35 28L34 28L34 27L36 27L36 28L37 28L37 26L36 26L36 25L37 25L37 22L36 22L36 21L37 21L37 18L36 18L36 17L37 17L37 14L36 14L36 13L35 13L35 12L34 12L34 11L35 11L35 9L36 9L36 8L35 8L35 9L34 9L34 8L33 8L33 9L34 9L34 11L33 11L33 12L30 12L30 11L32 11L32 10L30 10L30 8L29 8L29 3L25 3L25 4L28 4L28 5L26 5L26 8L24 8L24 7L25 7L25 5L24 5L24 4L23 4L23 1L24 1L24 2L25 2L25 0L23 0L23 1L22 1L22 2L21 2L21 0L14 0L14 1L15 1L15 2L14 2L14 4L12 4L12 2L13 2L13 1L11 1L11 2L10 2L10 0ZM28 0L28 1L26 1L26 2L28 2L28 1L29 1L29 0ZM18 1L18 2L17 2L17 3L18 3L18 4L14 4L14 5L19 5L19 7L20 7L20 8L18 8L18 6L17 6L17 8L18 8L18 9L17 9L17 10L16 10L16 9L15 9L15 10L16 10L16 11L17 11L17 12L18 12L18 13L17 13L17 14L16 14L16 15L14 15L14 16L13 16L13 17L12 17L12 15L13 15L13 14L12 14L12 13L10 13L10 12L11 12L11 11L10 11L10 10L9 10L9 12L7 12L7 11L6 11L6 10L8 10L8 9L6 9L6 10L5 10L5 11L4 11L4 10L3 10L3 11L4 11L4 12L3 12L3 13L2 13L2 16L3 16L3 13L4 13L4 14L5 14L5 16L7 16L7 17L8 17L8 18L9 18L9 20L10 20L10 18L9 18L9 17L8 17L8 16L11 16L11 18L13 18L13 19L12 19L12 21L10 21L10 22L9 22L9 21L8 21L8 22L7 22L7 21L5 21L5 22L3 22L3 21L2 21L2 23L5 23L5 24L3 24L3 25L2 25L2 26L3 26L3 25L5 25L5 27L4 27L4 28L5 28L5 27L6 27L6 28L7 28L7 27L6 27L6 26L8 26L8 27L9 27L9 26L10 26L10 25L8 25L8 23L9 23L9 24L10 24L10 22L11 22L11 26L13 26L13 27L12 27L12 29L17 29L17 28L19 28L19 29L22 29L22 30L23 30L23 29L22 29L22 28L20 28L20 27L21 27L21 26L19 26L19 25L22 25L22 26L23 26L23 27L24 27L24 28L30 28L30 26L31 26L31 28L32 28L32 27L33 27L33 25L34 25L34 26L35 26L35 25L34 25L34 24L36 24L36 23L35 23L35 22L33 22L33 21L34 21L34 20L36 20L36 19L35 19L35 17L36 17L36 14L35 14L35 15L34 15L34 13L30 13L30 12L27 12L27 10L28 10L28 9L29 9L29 8L28 8L28 6L27 6L27 10L26 10L26 9L24 9L24 10L23 10L23 9L22 9L22 8L21 8L21 7L22 7L22 6L21 6L21 4L22 4L22 5L23 5L23 7L24 7L24 5L23 5L23 4L22 4L22 3L20 3L20 5L19 5L19 2L20 2L20 1ZM10 3L10 4L11 4L11 3ZM8 5L8 7L9 7L9 5ZM13 6L13 8L15 8L15 7L16 7L16 6L15 6L15 7L14 7L14 6ZM20 6L20 7L21 7L21 6ZM20 8L20 9L18 9L18 10L21 10L21 12L22 12L22 13L23 13L23 14L21 14L21 13L20 13L20 11L18 11L18 12L19 12L19 13L18 13L18 14L20 14L20 16L19 16L19 18L17 18L17 17L18 17L18 16L17 16L17 15L16 15L16 16L17 16L17 17L15 17L15 16L14 16L14 17L15 17L15 19L14 19L14 20L15 20L15 21L12 21L12 22L13 22L13 23L12 23L12 25L13 25L13 24L14 24L14 25L16 25L16 26L15 26L15 27L14 27L14 28L16 28L16 27L18 27L18 26L17 26L17 25L19 25L19 24L17 24L17 25L16 25L16 24L14 24L14 23L18 23L18 22L20 22L20 24L22 24L22 25L23 25L23 26L24 26L24 25L26 25L26 26L25 26L25 27L26 27L26 26L27 26L27 27L29 27L29 26L30 26L30 25L31 25L31 24L32 24L32 25L33 25L33 24L34 24L34 23L33 23L33 22L32 22L32 23L31 23L31 22L30 22L30 21L33 21L33 20L34 20L34 19L33 19L33 20L30 20L30 19L32 19L32 18L30 18L30 17L31 17L31 16L32 16L32 17L33 17L33 18L34 18L34 17L35 17L35 16L34 16L34 15L33 15L33 14L32 14L32 15L31 15L31 16L30 16L30 17L29 17L29 14L30 14L30 13L29 13L29 14L26 14L26 12L24 12L24 13L23 13L23 10L21 10L21 8ZM31 8L31 9L32 9L32 8ZM25 10L25 11L26 11L26 10ZM29 10L29 11L30 11L30 10ZM36 10L36 11L37 11L37 10ZM5 11L5 12L6 12L6 13L5 13L5 14L6 14L6 15L10 15L10 13L9 13L9 14L8 14L8 13L7 13L7 12L6 12L6 11ZM6 13L6 14L7 14L7 13ZM24 13L24 14L23 14L23 16L24 16L24 15L25 15L25 16L26 16L26 14L25 14L25 13ZM27 15L27 16L28 16L28 15ZM20 16L20 18L19 18L19 19L20 19L20 20L19 20L19 21L20 21L20 20L21 20L21 22L23 22L23 23L22 23L22 24L23 24L23 25L24 25L24 24L23 24L23 23L25 23L25 24L26 24L26 22L28 22L28 24L27 24L27 26L28 26L28 25L30 25L30 22L28 22L28 21L30 21L30 20L28 20L28 19L27 19L27 18L28 18L28 17L27 17L27 18L26 18L26 17L24 17L24 18L23 18L23 17L22 17L22 16ZM33 16L33 17L34 17L34 16ZM21 17L21 20L22 20L22 21L23 21L23 22L24 22L24 21L27 21L27 19L26 19L26 18L24 18L24 19L26 19L26 20L23 20L23 19L22 19L22 17ZM16 18L16 19L15 19L15 20L16 20L16 21L15 21L15 22L16 22L16 21L17 21L17 20L18 20L18 19L17 19L17 18ZM29 18L29 19L30 19L30 18ZM6 22L6 23L7 23L7 22ZM6 24L6 25L7 25L7 24ZM25 29L25 30L26 30L26 29ZM29 29L29 32L32 32L32 29ZM33 29L33 30L34 30L34 29ZM30 30L30 31L31 31L31 30ZM10 31L10 32L8 32L8 37L10 37L10 36L9 36L9 34L10 34L10 35L11 35L11 37L12 37L12 35L13 35L13 34L10 34L10 33L11 33L11 31ZM34 31L34 32L33 32L33 33L34 33L34 34L30 34L30 33L29 33L29 34L30 34L30 35L31 35L31 36L32 36L32 35L34 35L34 36L36 36L36 35L35 35L35 33L34 33L34 32L35 32L35 31ZM24 33L24 34L23 34L23 35L25 35L25 36L26 36L26 35L28 35L28 33L26 33L26 34L25 34L25 33ZM19 34L19 35L21 35L21 34ZM0 0L0 7L7 7L7 0ZM1 1L1 6L6 6L6 1ZM2 2L2 5L5 5L5 2ZM30 0L30 7L37 7L37 0ZM31 1L31 6L36 6L36 1ZM32 2L32 5L35 5L35 2ZM0 30L0 37L7 37L7 30ZM1 31L1 36L6 36L6 31ZM2 32L2 35L5 35L5 32Z" fill="#000000"/></g></g></svg>
