<?xml version="1.0" encoding="UTF-8"?>
<svg xmlns="http://www.w3.org/2000/svg" version="1.1" width="150" height="150" viewBox="0 0 150 150"><rect x="0" y="0" width="150" height="150" fill="#ffffff"/><g transform="scale(4.054)"><g transform="translate(0,0)"><path fill-rule="evenodd" d="M9 0L9 1L8 1L8 2L9 2L9 3L8 3L8 4L10 4L10 7L11 7L11 4L12 4L12 5L13 5L13 6L12 6L12 9L13 9L13 8L14 8L14 9L15 9L15 10L17 10L17 11L16 11L16 13L12 13L12 11L13 11L13 10L8 10L8 11L7 11L7 10L5 10L5 8L0 8L0 9L2 9L2 11L1 11L1 10L0 10L0 13L1 13L1 12L2 12L2 13L3 13L3 14L2 14L2 15L4 15L4 16L5 16L5 15L4 15L4 14L6 14L6 15L7 15L7 14L9 14L9 15L10 15L10 17L9 17L9 18L8 18L8 17L7 17L7 16L6 16L6 17L7 17L7 18L6 18L6 19L7 19L7 20L5 20L5 19L3 19L3 20L5 20L5 21L3 21L3 22L5 22L5 21L7 21L7 22L6 22L6 23L5 23L5 24L6 24L6 25L5 25L5 26L6 26L6 27L8 27L8 28L5 28L5 27L4 27L4 24L3 24L3 28L2 28L2 29L3 29L3 28L5 28L5 29L8 29L8 31L9 31L9 32L8 32L8 37L9 37L9 35L11 35L11 37L12 37L12 35L13 35L13 34L11 34L11 32L10 32L10 31L11 31L11 29L12 29L12 30L13 30L13 31L12 31L12 33L13 33L13 32L14 32L14 33L16 33L16 34L15 34L15 35L14 35L14 36L15 36L15 37L19 37L19 36L20 36L20 37L21 37L21 36L22 36L22 37L23 37L23 34L25 34L25 35L26 35L26 36L24 36L24 37L27 37L27 35L28 35L28 36L29 36L29 37L30 37L30 35L28 35L28 34L29 34L29 33L30 33L30 34L34 34L34 33L36 33L36 34L35 34L35 35L36 35L36 36L34 36L34 35L32 35L32 36L31 36L31 37L32 37L32 36L34 36L34 37L37 37L37 33L36 33L36 31L37 31L37 30L35 30L35 28L34 28L34 27L36 27L36 28L37 28L37 26L36 26L36 25L37 25L37 22L36 22L36 21L37 21L37 18L36 18L36 17L37 17L37 14L36 14L36 13L35 13L35 12L34 12L34 11L35 11L35 9L36 9L36 8L35 8L35 9L34 9L34 8L33 8L33 9L34 9L34 11L32 11L32 10L31 10L31 11L32 11L32 12L30 12L30 13L28 13L28 14L27 14L27 11L28 11L28 12L29 12L29 10L30 10L30 8L27 8L27 9L28 9L28 10L26 10L26 8L25 8L25 10L24 10L24 9L23 9L23 6L22 6L22 4L23 4L23 5L24 5L24 7L25 7L25 6L26 6L26 7L27 7L27 6L28 6L28 7L29 7L29 6L28 6L28 5L29 5L29 4L28 4L28 3L29 3L29 2L28 2L28 1L29 1L29 0L28 0L28 1L26 1L26 3L24 3L24 2L20 2L20 7L21 7L21 8L19 8L19 10L18 10L18 8L17 8L17 9L16 9L16 7L17 7L17 5L16 5L16 4L18 4L18 7L19 7L19 4L18 4L18 3L17 3L17 2L16 2L16 4L12 4L12 2L13 2L13 1L11 1L11 2L10 2L10 0ZM15 0L15 1L18 1L18 2L19 2L19 0ZM20 0L20 1L21 1L21 0ZM23 0L23 1L24 1L24 0ZM14 2L14 3L15 3L15 2ZM10 3L10 4L11 4L11 3ZM21 3L21 4L22 4L22 3ZM25 4L25 5L26 5L26 6L27 6L27 5L28 5L28 4L27 4L27 5L26 5L26 4ZM8 5L8 7L9 7L9 5ZM13 6L13 7L14 7L14 8L15 8L15 7L16 7L16 6L15 6L15 7L14 7L14 6ZM21 6L21 7L22 7L22 6ZM6 8L6 9L11 9L11 8ZM21 8L21 9L22 9L22 8ZM31 8L31 9L32 9L32 8ZM3 9L3 11L2 11L2 12L3 12L3 13L5 13L5 11L4 11L4 9ZM19 10L19 11L20 11L20 12L18 12L18 11L17 11L17 13L16 13L16 14L17 14L17 13L18 13L18 14L19 14L19 16L20 16L20 17L17 17L17 16L18 16L18 15L16 15L16 17L17 17L17 18L15 18L15 17L14 17L14 16L15 16L15 15L14 15L14 16L13 16L13 17L12 17L12 15L13 15L13 14L12 14L12 13L10 13L10 12L11 12L11 11L9 11L9 14L11 14L11 18L13 18L13 19L12 19L12 21L11 21L11 20L10 20L10 19L8 19L8 22L7 22L7 23L6 23L6 24L7 24L7 25L6 25L6 26L7 26L7 25L8 25L8 26L9 26L9 28L8 28L8 29L9 29L9 30L10 30L10 29L9 29L9 28L10 28L10 26L9 26L9 25L10 25L10 23L11 23L11 26L13 26L13 27L12 27L12 29L16 29L16 30L17 30L17 31L16 31L16 32L18 32L18 33L17 33L17 34L16 34L16 36L18 36L18 35L17 35L17 34L19 34L19 35L20 35L20 36L21 36L21 35L22 35L22 34L23 34L23 33L22 33L22 32L20 32L20 31L22 31L22 30L23 30L23 31L24 31L24 32L26 32L26 31L27 31L27 32L28 32L28 30L27 30L27 29L28 29L28 28L30 28L30 26L31 26L31 28L32 28L32 27L33 27L33 25L34 25L34 26L35 26L35 25L34 25L34 24L36 24L36 23L35 23L35 22L33 22L33 21L34 21L34 20L36 20L36 19L35 19L35 17L36 17L36 14L35 14L35 15L34 15L34 13L30 13L30 14L29 14L29 15L30 15L30 16L27 16L27 17L24 17L24 16L26 16L26 15L27 15L27 14L26 14L26 13L24 13L24 14L23 14L23 13L22 13L22 12L23 12L23 11L24 11L24 12L26 12L26 10L25 10L25 11L24 11L24 10L21 10L21 11L20 11L20 10ZM36 10L36 11L37 11L37 10ZM3 11L3 12L4 12L4 11ZM6 11L6 12L7 12L7 13L6 13L6 14L7 14L7 13L8 13L8 12L7 12L7 11ZM14 11L14 12L15 12L15 11ZM21 11L21 12L22 12L22 11ZM20 13L20 14L21 14L21 16L22 16L22 17L23 17L23 18L22 18L22 19L21 19L21 17L20 17L20 19L19 19L19 18L18 18L18 19L19 19L19 22L20 22L20 20L23 20L23 22L21 22L21 24L20 24L20 23L19 23L19 24L20 24L20 25L18 25L18 24L17 24L17 25L16 25L16 23L18 23L18 22L16 22L16 21L18 21L18 20L17 20L17 19L16 19L16 21L12 21L12 22L13 22L13 23L12 23L12 25L13 25L13 24L14 24L14 25L15 25L15 26L17 26L17 27L16 27L16 28L17 28L17 29L19 29L19 30L21 30L21 29L19 29L19 26L20 26L20 28L24 28L24 29L23 29L23 30L24 30L24 29L25 29L25 30L26 30L26 29L27 29L27 28L28 28L28 26L30 26L30 25L31 25L31 24L32 24L32 25L33 25L33 24L34 24L34 23L33 23L33 22L32 22L32 23L31 23L31 22L30 22L30 21L33 21L33 20L34 20L34 19L33 19L33 20L31 20L31 19L32 19L32 18L30 18L30 17L31 17L31 16L32 16L32 17L33 17L33 18L34 18L34 17L35 17L35 16L34 16L34 15L33 15L33 14L32 14L32 15L31 15L31 14L30 14L30 15L31 15L31 16L30 16L30 17L29 17L29 18L26 18L26 20L25 20L25 19L24 19L24 20L23 20L23 18L24 18L24 17L23 17L23 16L22 16L22 15L23 15L23 14L21 14L21 13ZM25 14L25 15L26 15L26 14ZM2 16L2 17L0 17L0 19L1 19L1 20L0 20L0 22L2 22L2 18L4 18L4 17L3 17L3 16ZM33 16L33 17L34 17L34 16ZM29 18L29 21L30 21L30 18ZM14 19L14 20L15 20L15 19ZM27 19L27 20L28 20L28 19ZM24 21L24 22L23 22L23 24L27 24L27 26L28 26L28 25L30 25L30 22L29 22L29 24L28 24L28 23L27 23L27 22L28 22L28 21L27 21L27 22L26 22L26 21ZM8 22L8 23L7 23L7 24L9 24L9 23L10 23L10 22ZM24 22L24 23L26 23L26 22ZM1 23L1 24L0 24L0 29L1 29L1 25L2 25L2 23ZM14 23L14 24L15 24L15 23ZM21 24L21 25L22 25L22 26L21 26L21 27L22 27L22 26L23 26L23 27L25 27L25 28L27 28L27 27L25 27L25 26L26 26L26 25L24 25L24 26L23 26L23 25L22 25L22 24ZM14 27L14 28L15 28L15 27ZM17 27L17 28L18 28L18 27ZM29 29L29 32L32 32L32 29ZM33 29L33 30L34 30L34 29ZM30 30L30 31L31 31L31 30ZM14 31L14 32L15 32L15 31ZM18 31L18 32L19 32L19 31ZM34 31L34 32L33 32L33 33L34 33L34 32L35 32L35 31ZM9 33L9 34L10 34L10 33ZM19 33L19 34L21 34L21 33ZM25 33L25 34L26 34L26 35L27 35L27 34L28 34L28 33ZM0 0L0 7L7 7L7 0ZM1 1L1 6L6 6L6 1ZM2 2L2 5L5 5L5 2ZM30 0L30 7L37 7L37 0ZM31 1L31 6L36 6L36 1ZM32 2L32 5L35 5L35 2ZM0 30L0 37L7 37L7 30ZM1 31L1 36L6 36L6 31ZM2 32L2 35L5 35L5 32Z" fill="#000000"/></g></g></svg>
