<?xml version="1.0" encoding="UTF-8"?>
<svg xmlns="http://www.w3.org/2000/svg" version="1.1" width="150" height="150" viewBox="0 0 150 150"><rect x="0" y="0" width="150" height="150" fill="#ffffff"/><g transform="scale(4.054)"><g transform="translate(0,0)"><path fill-rule="evenodd" d="M9 0L9 1L8 1L8 2L9 2L9 3L8 3L8 4L10 4L10 7L11 7L11 4L12 4L12 5L13 5L13 6L12 6L12 9L13 9L13 8L14 8L14 9L15 9L15 11L14 11L14 12L16 12L16 13L17 13L17 15L16 15L16 14L15 14L15 13L12 13L12 11L13 11L13 10L10 10L10 9L11 9L11 8L6 8L6 9L5 9L5 8L0 8L0 13L1 13L1 14L2 14L2 15L0 15L0 16L2 16L2 18L3 18L3 17L4 17L4 16L5 16L5 15L7 15L7 16L6 16L6 17L7 17L7 18L4 18L4 19L3 19L3 20L2 20L2 22L1 22L1 25L0 25L0 29L1 29L1 26L3 26L3 27L2 27L2 29L3 29L3 28L4 28L4 29L5 29L5 28L6 28L6 29L7 29L7 28L9 28L9 29L8 29L8 31L9 31L9 32L8 32L8 37L9 37L9 34L10 34L10 36L11 36L11 37L12 37L12 35L13 35L13 34L11 34L11 32L10 32L10 31L11 31L11 29L12 29L12 30L13 30L13 31L12 31L12 33L13 33L13 32L14 32L14 33L16 33L16 34L15 34L15 35L14 35L14 36L15 36L15 37L21 37L21 36L22 36L22 35L21 35L21 34L24 34L24 33L25 33L25 34L26 34L26 33L28 33L28 35L26 35L26 36L25 36L25 35L23 35L23 36L24 36L24 37L28 37L28 36L29 36L29 35L30 35L30 37L32 37L32 36L34 36L34 37L37 37L37 30L35 30L35 28L34 28L34 27L36 27L36 28L37 28L37 26L36 26L36 25L37 25L37 22L36 22L36 21L37 21L37 18L36 18L36 17L37 17L37 14L36 14L36 13L35 13L35 12L34 12L34 11L35 11L35 9L36 9L36 8L35 8L35 9L34 9L34 8L33 8L33 9L34 9L34 11L33 11L33 12L30 12L30 11L32 11L32 10L30 10L30 8L29 8L29 3L25 3L25 4L28 4L28 5L26 5L26 8L24 8L24 7L25 7L25 5L24 5L24 4L23 4L23 1L24 1L24 2L25 2L25 0L23 0L23 1L22 1L22 2L21 2L21 0L19 0L19 1L17 1L17 0L15 0L15 1L17 1L17 2L16 2L16 3L17 3L17 6L16 6L16 4L12 4L12 2L13 2L13 1L11 1L11 2L10 2L10 0ZM28 0L28 1L26 1L26 2L28 2L28 1L29 1L29 0ZM19 1L19 4L22 4L22 5L18 5L18 6L17 6L17 8L16 8L16 6L15 6L15 7L14 7L14 6L13 6L13 7L14 7L14 8L15 8L15 9L21 9L21 10L19 10L19 11L20 11L20 12L18 12L18 10L17 10L17 11L16 11L16 12L17 12L17 13L20 13L20 12L21 12L21 14L22 14L22 15L23 15L23 16L24 16L24 15L25 15L25 16L26 16L26 14L29 14L29 17L30 17L30 18L29 18L29 19L30 19L30 20L28 20L28 19L27 19L27 18L28 18L28 17L27 17L27 18L26 18L26 17L24 17L24 18L23 18L23 17L22 17L22 16L20 16L20 17L22 17L22 18L23 18L23 20L26 20L26 19L27 19L27 21L24 21L24 22L23 22L23 21L22 21L22 20L20 20L20 22L18 22L18 23L14 23L14 24L13 24L13 25L12 25L12 23L13 23L13 22L12 22L12 21L15 21L15 22L16 22L16 20L18 20L18 21L19 21L19 20L18 20L18 18L19 18L19 19L20 19L20 18L19 18L19 16L18 16L18 15L20 15L20 14L18 14L18 15L17 15L17 16L16 16L16 15L14 15L14 16L13 16L13 17L12 17L12 15L13 15L13 14L12 14L12 13L11 13L11 16L10 16L10 15L8 15L8 13L10 13L10 12L11 12L11 11L10 11L10 12L7 12L7 11L9 11L9 9L8 9L8 10L7 10L7 9L6 9L6 10L4 10L4 9L1 9L1 11L2 11L2 12L3 12L3 13L4 13L4 14L7 14L7 15L8 15L8 17L10 17L10 18L8 18L8 19L6 19L6 20L5 20L5 19L4 19L4 20L3 20L3 22L2 22L2 24L3 24L3 25L4 25L4 27L6 27L6 28L7 28L7 27L6 27L6 26L8 26L8 27L9 27L9 28L10 28L10 29L9 29L9 30L10 30L10 29L11 29L11 28L10 28L10 27L11 27L11 26L13 26L13 27L12 27L12 29L15 29L15 30L18 30L18 29L19 29L19 28L21 28L21 29L20 29L20 30L19 30L19 31L16 31L16 32L17 32L17 33L20 33L20 34L19 34L19 36L21 36L21 35L20 35L20 34L21 34L21 33L24 33L24 32L28 32L28 29L27 29L27 31L25 31L25 30L26 30L26 29L25 29L25 30L23 30L23 27L24 27L24 28L30 28L30 26L31 26L31 28L32 28L32 27L33 27L33 25L34 25L34 26L35 26L35 25L34 25L34 24L36 24L36 23L35 23L35 22L33 22L33 21L34 21L34 20L36 20L36 19L35 19L35 17L36 17L36 14L35 14L35 15L34 15L34 13L30 13L30 12L27 12L27 10L28 10L28 9L29 9L29 8L28 8L28 6L27 6L27 10L26 10L26 9L24 9L24 10L23 10L23 9L22 9L22 8L20 8L20 6L21 6L21 7L22 7L22 6L23 6L23 7L24 7L24 5L23 5L23 4L22 4L22 3L20 3L20 1ZM14 2L14 3L15 3L15 2ZM17 2L17 3L18 3L18 2ZM10 3L10 4L11 4L11 3ZM8 5L8 7L9 7L9 5ZM18 6L18 7L19 7L19 6ZM31 8L31 9L32 9L32 8ZM2 10L2 11L4 11L4 10ZM6 10L6 11L5 11L5 12L4 12L4 13L5 13L5 12L6 12L6 13L7 13L7 12L6 12L6 11L7 11L7 10ZM21 10L21 12L22 12L22 13L23 13L23 14L24 14L24 13L25 13L25 14L26 14L26 12L24 12L24 13L23 13L23 12L22 12L22 11L23 11L23 10ZM25 10L25 11L26 11L26 10ZM29 10L29 11L30 11L30 10ZM36 10L36 11L37 11L37 10ZM29 13L29 14L30 14L30 13ZM32 14L32 15L31 15L31 16L30 16L30 17L31 17L31 16L32 16L32 17L33 17L33 18L34 18L34 17L35 17L35 16L34 16L34 15L33 15L33 14ZM2 15L2 16L3 16L3 15ZM27 15L27 16L28 16L28 15ZM14 16L14 17L15 17L15 16ZM17 16L17 17L16 17L16 18L15 18L15 19L14 19L14 20L16 20L16 19L17 19L17 18L18 18L18 16ZM33 16L33 17L34 17L34 16ZM0 17L0 21L1 21L1 17ZM10 18L10 19L9 19L9 20L10 20L10 22L8 22L8 21L7 21L7 20L6 20L6 21L7 21L7 22L6 22L6 23L7 23L7 24L5 24L5 22L3 22L3 23L4 23L4 25L5 25L5 26L6 26L6 25L8 25L8 24L9 24L9 26L11 26L11 25L10 25L10 23L11 23L11 21L12 21L12 19L13 19L13 18ZM24 18L24 19L26 19L26 18ZM30 18L30 19L32 19L32 18ZM33 19L33 20L30 20L30 21L28 21L28 22L26 22L26 24L25 24L25 23L23 23L23 22L22 22L22 23L21 23L21 22L20 22L20 23L21 23L21 24L19 24L19 23L18 23L18 24L17 24L17 25L16 25L16 24L14 24L14 25L15 25L15 27L14 27L14 28L15 28L15 29L17 29L17 28L16 28L16 27L18 27L18 28L19 28L19 27L18 27L18 26L20 26L20 25L21 25L21 28L22 28L22 27L23 27L23 26L24 26L24 25L26 25L26 26L25 26L25 27L26 27L26 26L27 26L27 27L29 27L29 26L30 26L30 25L31 25L31 24L32 24L32 25L33 25L33 24L34 24L34 23L33 23L33 22L32 22L32 23L31 23L31 22L30 22L30 21L33 21L33 20L34 20L34 19ZM7 22L7 23L8 23L8 22ZM28 22L28 24L27 24L27 26L28 26L28 25L30 25L30 22ZM22 23L22 24L21 24L21 25L22 25L22 24L23 24L23 25L24 25L24 24L23 24L23 23ZM18 24L18 25L17 25L17 26L18 26L18 25L19 25L19 24ZM29 29L29 32L32 32L32 29ZM33 29L33 30L34 30L34 29ZM20 30L20 33L21 33L21 32L23 32L23 30ZM30 30L30 31L31 31L31 30ZM14 31L14 32L15 32L15 31ZM34 31L34 32L33 32L33 33L34 33L34 34L30 34L30 33L29 33L29 34L30 34L30 35L31 35L31 36L32 36L32 35L34 35L34 36L36 36L36 35L35 35L35 33L34 33L34 32L35 32L35 31ZM9 32L9 33L10 33L10 32ZM16 34L16 36L18 36L18 35L17 35L17 34ZM0 0L0 7L7 7L7 0ZM1 1L1 6L6 6L6 1ZM2 2L2 5L5 5L5 2ZM30 0L30 7L37 7L37 0ZM31 1L31 6L36 6L36 1ZM32 2L32 5L35 5L35 2ZM0 30L0 37L7 37L7 30ZM1 31L1 36L6 36L6 31ZM2 32L2 35L5 35L5 32Z" fill="#000000"/></g></g></svg>
