<?xml version="1.0" encoding="UTF-8"?>
<svg xmlns="http://www.w3.org/2000/svg" version="1.1" width="150" height="150" viewBox="0 0 150 150"><rect x="0" y="0" width="150" height="150" fill="#ffffff"/><g transform="scale(4.054)"><g transform="translate(0,0)"><path fill-rule="evenodd" d="M10 0L10 2L11 2L11 0ZM12 0L12 1L13 1L13 2L12 2L12 4L14 4L14 5L15 5L15 6L14 6L14 8L15 8L15 9L16 9L16 10L14 10L14 9L12 9L12 7L13 7L13 5L11 5L11 6L10 6L10 4L11 4L11 3L8 3L8 4L9 4L9 5L8 5L8 7L9 7L9 8L6 8L6 9L10 9L10 10L11 10L11 9L12 9L12 10L13 10L13 11L12 11L12 13L13 13L13 12L14 12L14 13L15 13L15 15L14 15L14 16L15 16L15 15L16 15L16 14L17 14L17 15L18 15L18 16L17 16L17 17L16 17L16 18L15 18L15 17L12 17L12 15L13 15L13 14L11 14L11 12L10 12L10 13L8 13L8 14L6 14L6 15L5 15L5 16L4 16L4 17L5 17L5 18L3 18L3 17L1 17L1 16L3 16L3 15L2 15L2 14L4 14L4 13L7 13L7 12L9 12L9 10L8 10L8 11L7 11L7 10L5 10L5 11L4 11L4 9L5 9L5 8L0 8L0 9L3 9L3 10L2 10L2 12L4 12L4 13L0 13L0 18L1 18L1 19L0 19L0 20L1 20L1 19L2 19L2 20L3 20L3 22L6 22L6 23L5 23L5 26L4 26L4 25L3 25L3 26L4 26L4 27L5 27L5 26L6 26L6 27L7 27L7 28L6 28L6 29L8 29L8 31L10 31L10 32L8 32L8 37L11 37L11 36L9 36L9 35L11 35L11 34L10 34L10 32L11 32L11 33L12 33L12 34L13 34L13 35L12 35L12 37L13 37L13 36L14 36L14 37L16 37L16 36L17 36L17 35L18 35L18 36L20 36L20 37L21 37L21 36L22 36L22 37L23 37L23 36L24 36L24 37L28 37L28 36L29 36L29 35L30 35L30 37L32 37L32 36L34 36L34 37L37 37L37 33L35 33L35 32L34 32L34 31L36 31L36 32L37 32L37 30L35 30L35 28L34 28L34 27L36 27L36 28L37 28L37 26L36 26L36 25L37 25L37 22L36 22L36 21L37 21L37 18L36 18L36 17L37 17L37 14L36 14L36 13L35 13L35 12L34 12L34 11L35 11L35 9L36 9L36 8L35 8L35 9L34 9L34 8L33 8L33 9L34 9L34 11L33 11L33 12L30 12L30 11L32 11L32 10L30 10L30 8L29 8L29 3L25 3L25 4L28 4L28 5L26 5L26 8L24 8L24 7L25 7L25 5L24 5L24 4L23 4L23 1L24 1L24 2L25 2L25 0L23 0L23 1L22 1L22 2L21 2L21 0L19 0L19 1L17 1L17 0L15 0L15 1L14 1L14 0ZM28 0L28 1L26 1L26 2L28 2L28 1L29 1L29 0ZM8 1L8 2L9 2L9 1ZM19 1L19 2L20 2L20 1ZM13 2L13 3L18 3L18 4L17 4L17 5L16 5L16 4L15 4L15 5L16 5L16 6L15 6L15 8L16 8L16 9L17 9L17 11L16 11L16 12L18 12L18 13L17 13L17 14L19 14L19 17L22 17L22 19L23 19L23 20L26 20L26 19L27 19L27 21L24 21L24 22L23 22L23 21L22 21L22 20L21 20L21 18L18 18L18 19L17 19L17 18L16 18L16 19L14 19L14 20L13 20L13 21L12 21L12 19L13 19L13 18L12 18L12 17L11 17L11 16L7 16L7 15L6 15L6 16L5 16L5 17L6 17L6 18L5 18L5 21L6 21L6 22L7 22L7 21L6 21L6 20L9 20L9 21L10 21L10 23L9 23L9 22L8 22L8 23L9 23L9 24L7 24L7 23L6 23L6 24L7 24L7 25L6 25L6 26L8 26L8 25L9 25L9 24L10 24L10 27L11 27L11 28L8 28L8 29L9 29L9 30L10 30L10 31L11 31L11 30L13 30L13 31L12 31L12 33L17 33L17 34L18 34L18 33L21 33L21 34L19 34L19 35L20 35L20 36L21 36L21 34L23 34L23 35L25 35L25 36L26 36L26 35L28 35L28 33L26 33L26 34L25 34L25 33L24 33L24 32L28 32L28 29L27 29L27 31L25 31L25 30L26 30L26 29L25 29L25 30L23 30L23 29L22 29L22 28L23 28L23 27L24 27L24 28L30 28L30 26L31 26L31 28L32 28L32 27L33 27L33 25L34 25L34 26L35 26L35 25L34 25L34 24L36 24L36 23L35 23L35 22L33 22L33 21L34 21L34 20L36 20L36 19L35 19L35 17L36 17L36 14L35 14L35 15L34 15L34 13L30 13L30 12L27 12L27 10L28 10L28 9L29 9L29 8L28 8L28 6L27 6L27 10L26 10L26 9L24 9L24 10L23 10L23 9L22 9L22 8L23 8L23 7L24 7L24 5L23 5L23 4L22 4L22 3L20 3L20 4L21 4L21 5L23 5L23 7L22 7L22 6L21 6L21 7L22 7L22 8L20 8L20 10L18 10L18 9L19 9L19 8L18 8L18 6L19 6L19 7L20 7L20 5L18 5L18 4L19 4L19 3L18 3L18 2ZM9 6L9 7L10 7L10 6ZM11 6L11 7L12 7L12 6ZM16 6L16 7L17 7L17 6ZM10 8L10 9L11 9L11 8ZM17 8L17 9L18 9L18 8ZM31 8L31 9L32 9L32 8ZM0 10L0 11L1 11L1 10ZM21 10L21 12L20 12L20 11L19 11L19 14L20 14L20 16L22 16L22 17L23 17L23 18L24 18L24 19L26 19L26 18L27 18L27 19L28 19L28 20L30 20L30 21L28 21L28 22L26 22L26 24L25 24L25 23L23 23L23 22L22 22L22 23L21 23L21 20L20 20L20 19L19 19L19 20L20 20L20 21L19 21L19 22L18 22L18 21L17 21L17 19L16 19L16 20L14 20L14 21L17 21L17 22L15 22L15 23L14 23L14 24L15 24L15 25L12 25L12 23L13 23L13 22L11 22L11 25L12 25L12 26L13 26L13 27L12 27L12 29L13 29L13 28L14 28L14 29L19 29L19 30L18 30L18 32L17 32L17 31L16 31L16 30L15 30L15 31L14 31L14 32L15 32L15 31L16 31L16 32L17 32L17 33L18 33L18 32L19 32L19 30L20 30L20 31L21 31L21 32L23 32L23 30L22 30L22 31L21 31L21 29L20 29L20 28L22 28L22 27L23 27L23 26L24 26L24 25L26 25L26 26L25 26L25 27L26 27L26 26L27 26L27 27L29 27L29 26L30 26L30 25L31 25L31 24L32 24L32 25L33 25L33 24L34 24L34 23L33 23L33 22L32 22L32 23L31 23L31 22L30 22L30 21L33 21L33 20L34 20L34 19L33 19L33 20L30 20L30 19L32 19L32 18L30 18L30 17L31 17L31 16L32 16L32 17L33 17L33 18L34 18L34 17L35 17L35 16L34 16L34 15L33 15L33 14L32 14L32 15L31 15L31 16L30 16L30 17L29 17L29 14L30 14L30 13L29 13L29 14L26 14L26 12L24 12L24 13L23 13L23 11L22 11L22 10ZM25 10L25 11L26 11L26 10ZM29 10L29 11L30 11L30 10ZM36 10L36 11L37 11L37 10ZM6 11L6 12L7 12L7 11ZM14 11L14 12L15 12L15 11ZM21 12L21 13L22 13L22 12ZM24 13L24 14L21 14L21 15L23 15L23 16L24 16L24 15L25 15L25 16L26 16L26 14L25 14L25 13ZM8 14L8 15L10 15L10 14ZM27 15L27 16L28 16L28 15ZM6 16L6 17L7 17L7 16ZM33 16L33 17L34 17L34 16ZM9 17L9 18L10 18L10 19L9 19L9 20L11 20L11 17ZM24 17L24 18L26 18L26 17ZM27 17L27 18L28 18L28 17ZM2 18L2 19L3 19L3 20L4 20L4 19L3 19L3 18ZM6 18L6 19L7 19L7 18ZM29 18L29 19L30 19L30 18ZM1 21L1 22L0 22L0 29L1 29L1 26L2 26L2 25L1 25L1 23L2 23L2 21ZM19 22L19 24L18 24L18 23L17 23L17 25L15 25L15 26L16 26L16 27L14 27L14 28L16 28L16 27L17 27L17 28L20 28L20 26L18 26L18 25L19 25L19 24L20 24L20 25L22 25L22 26L23 26L23 25L24 25L24 24L23 24L23 23L22 23L22 24L21 24L21 23L20 23L20 22ZM28 22L28 24L27 24L27 26L28 26L28 25L30 25L30 22ZM3 23L3 24L4 24L4 23ZM22 24L22 25L23 25L23 24ZM17 26L17 27L18 27L18 26ZM2 27L2 28L3 28L3 29L4 29L4 28L3 28L3 27ZM10 29L10 30L11 30L11 29ZM29 29L29 32L32 32L32 29ZM33 29L33 30L34 30L34 29ZM30 30L30 31L31 31L31 30ZM33 32L33 33L34 33L34 34L30 34L30 33L29 33L29 34L30 34L30 35L31 35L31 36L32 36L32 35L34 35L34 36L36 36L36 35L35 35L35 33L34 33L34 32ZM23 33L23 34L24 34L24 33ZM14 35L14 36L15 36L15 35ZM0 0L0 7L7 7L7 0ZM1 1L1 6L6 6L6 1ZM2 2L2 5L5 5L5 2ZM30 0L30 7L37 7L37 0ZM31 1L31 6L36 6L36 1ZM32 2L32 5L35 5L35 2ZM0 30L0 37L7 37L7 30ZM1 31L1 36L6 36L6 31ZM2 32L2 35L5 35L5 32Z" fill="#000000"/></g></g></svg>
