<?xml version="1.0" encoding="UTF-8"?>
<svg xmlns="http://www.w3.org/2000/svg" version="1.1" width="150" height="150" viewBox="0 0 150 150"><rect x="0" y="0" width="150" height="150" fill="#ffffff"/><g transform="scale(4.054)"><g transform="translate(0,0)"><path fill-rule="evenodd" d="M9 0L9 1L8 1L8 2L9 2L9 3L8 3L8 4L10 4L10 7L11 7L11 4L12 4L12 5L13 5L13 6L12 6L12 9L13 9L13 8L14 8L14 9L16 9L16 10L15 10L15 11L14 11L14 12L15 12L15 13L12 13L12 11L13 11L13 10L11 10L11 12L9 12L9 11L10 11L10 9L11 9L11 8L6 8L6 9L5 9L5 8L0 8L0 9L3 9L3 10L1 10L1 11L2 11L2 13L0 13L0 14L3 14L3 13L4 13L4 14L5 14L5 13L4 13L4 12L6 12L6 13L9 13L9 14L8 14L8 15L7 15L7 14L6 14L6 15L5 15L5 16L4 16L4 15L3 15L3 16L2 16L2 15L1 15L1 16L2 16L2 17L3 17L3 19L4 19L4 20L6 20L6 21L3 21L3 22L2 22L2 21L1 21L1 19L2 19L2 18L1 18L1 17L0 17L0 18L1 18L1 19L0 19L0 22L2 22L2 23L0 23L0 24L1 24L1 25L0 25L0 29L1 29L1 25L2 25L2 26L4 26L4 25L2 25L2 23L3 23L3 24L5 24L5 25L7 25L7 26L6 26L6 27L7 27L7 26L8 26L8 28L10 28L10 29L8 29L8 31L9 31L9 32L8 32L8 37L10 37L10 36L9 36L9 33L10 33L10 34L11 34L11 37L12 37L12 35L13 35L13 34L11 34L11 30L10 30L10 29L12 29L12 30L13 30L13 31L12 31L12 33L13 33L13 32L14 32L14 33L16 33L16 34L15 34L15 35L14 35L14 36L15 36L15 37L18 37L18 36L19 36L19 34L20 34L20 37L21 37L21 36L24 36L24 37L28 37L28 36L29 36L29 35L30 35L30 37L32 37L32 36L34 36L34 37L37 37L37 30L35 30L35 28L34 28L34 27L36 27L36 28L37 28L37 26L36 26L36 25L37 25L37 22L36 22L36 21L37 21L37 18L36 18L36 17L37 17L37 14L36 14L36 13L35 13L35 12L34 12L34 11L35 11L35 9L36 9L36 8L35 8L35 9L34 9L34 8L33 8L33 9L34 9L34 11L33 11L33 12L30 12L30 11L32 11L32 10L30 10L30 8L29 8L29 3L25 3L25 4L28 4L28 5L26 5L26 8L24 8L24 7L25 7L25 5L24 5L24 4L23 4L23 1L24 1L24 2L25 2L25 0L23 0L23 1L22 1L22 2L21 2L21 0L19 0L19 1L17 1L17 0L15 0L15 1L17 1L17 2L16 2L16 3L17 3L17 6L16 6L16 4L12 4L12 2L13 2L13 1L11 1L11 2L10 2L10 0ZM28 0L28 1L26 1L26 2L28 2L28 1L29 1L29 0ZM19 1L19 4L22 4L22 5L18 5L18 6L17 6L17 7L16 7L16 6L15 6L15 7L14 7L14 6L13 6L13 7L14 7L14 8L18 8L18 10L19 10L19 11L20 11L20 12L18 12L18 11L16 11L16 12L17 12L17 14L16 14L16 15L17 15L17 16L15 16L15 15L14 15L14 16L13 16L13 17L12 17L12 15L13 15L13 14L12 14L12 13L10 13L10 14L9 14L9 15L8 15L8 17L4 17L4 16L3 16L3 17L4 17L4 19L5 19L5 18L7 18L7 19L6 19L6 20L8 20L8 19L9 19L9 15L11 15L11 17L10 17L10 20L9 20L9 21L8 21L8 22L11 22L11 24L10 24L10 25L9 25L9 23L8 23L8 24L7 24L7 23L5 23L5 24L7 24L7 25L9 25L9 27L10 27L10 28L11 28L11 27L10 27L10 26L13 26L13 27L12 27L12 29L15 29L15 30L16 30L16 29L15 29L15 28L16 28L16 27L17 27L17 30L18 30L18 29L20 29L20 30L19 30L19 31L14 31L14 32L16 32L16 33L17 33L17 34L18 34L18 33L20 33L20 34L21 34L21 35L22 35L22 34L21 34L21 33L24 33L24 34L23 34L23 35L25 35L25 36L26 36L26 35L28 35L28 33L26 33L26 34L25 34L25 33L24 33L24 32L28 32L28 29L27 29L27 31L25 31L25 30L26 30L26 29L25 29L25 30L23 30L23 27L24 27L24 28L30 28L30 26L31 26L31 28L32 28L32 27L33 27L33 25L34 25L34 26L35 26L35 25L34 25L34 24L36 24L36 23L35 23L35 22L33 22L33 21L34 21L34 20L36 20L36 19L35 19L35 17L36 17L36 14L35 14L35 15L34 15L34 13L30 13L30 12L27 12L27 10L28 10L28 9L29 9L29 8L28 8L28 6L27 6L27 10L26 10L26 9L24 9L24 10L23 10L23 9L22 9L22 8L20 8L20 6L21 6L21 7L22 7L22 6L23 6L23 7L24 7L24 5L23 5L23 4L22 4L22 3L20 3L20 1ZM14 2L14 3L15 3L15 2ZM17 2L17 3L18 3L18 2ZM10 3L10 4L11 4L11 3ZM8 5L8 7L9 7L9 5ZM18 6L18 7L19 7L19 6ZM31 8L31 9L32 9L32 8ZM4 9L4 10L5 10L5 9ZM6 9L6 10L8 10L8 9ZM19 9L19 10L21 10L21 12L20 12L20 13L19 13L19 14L20 14L20 15L18 15L18 14L17 14L17 15L18 15L18 16L19 16L19 18L18 18L18 19L19 19L19 22L20 22L20 23L19 23L19 24L20 24L20 25L19 25L19 26L18 26L18 27L19 27L19 26L20 26L20 25L21 25L21 27L20 27L20 29L21 29L21 28L22 28L22 27L23 27L23 26L24 26L24 25L26 25L26 26L25 26L25 27L26 27L26 26L27 26L27 27L29 27L29 26L30 26L30 25L31 25L31 24L32 24L32 25L33 25L33 24L34 24L34 23L33 23L33 22L32 22L32 23L31 23L31 22L30 22L30 21L33 21L33 20L34 20L34 19L33 19L33 20L30 20L30 19L32 19L32 18L30 18L30 17L31 17L31 16L32 16L32 17L33 17L33 18L34 18L34 17L35 17L35 16L34 16L34 15L33 15L33 14L32 14L32 15L31 15L31 16L30 16L30 17L29 17L29 14L30 14L30 13L29 13L29 14L26 14L26 12L24 12L24 13L23 13L23 12L22 12L22 11L23 11L23 10L21 10L21 9ZM25 10L25 11L26 11L26 10ZM29 10L29 11L30 11L30 10ZM36 10L36 11L37 11L37 10ZM6 11L6 12L8 12L8 11ZM21 12L21 14L22 14L22 15L23 15L23 16L24 16L24 15L25 15L25 16L26 16L26 14L25 14L25 13L24 13L24 14L23 14L23 13L22 13L22 12ZM6 15L6 16L7 16L7 15ZM27 15L27 16L28 16L28 15ZM14 16L14 17L15 17L15 16ZM20 16L20 17L22 17L22 18L23 18L23 20L26 20L26 19L27 19L27 21L24 21L24 22L23 22L23 21L22 21L22 20L20 20L20 22L21 22L21 23L22 23L22 24L21 24L21 25L22 25L22 24L23 24L23 25L24 25L24 24L23 24L23 23L25 23L25 24L26 24L26 22L28 22L28 24L27 24L27 26L28 26L28 25L30 25L30 22L28 22L28 21L30 21L30 20L28 20L28 19L27 19L27 18L28 18L28 17L27 17L27 18L26 18L26 17L24 17L24 18L23 18L23 17L22 17L22 16ZM33 16L33 17L34 17L34 16ZM16 17L16 18L15 18L15 19L14 19L14 20L15 20L15 21L12 21L12 19L13 19L13 18L11 18L11 21L12 21L12 22L13 22L13 23L12 23L12 25L13 25L13 24L14 24L14 25L16 25L16 26L15 26L15 27L14 27L14 28L15 28L15 27L16 27L16 26L17 26L17 24L16 24L16 22L17 22L17 20L16 20L16 18L17 18L17 17ZM19 18L19 19L20 19L20 18ZM24 18L24 19L26 19L26 18ZM29 18L29 19L30 19L30 18ZM6 21L6 22L7 22L7 21ZM15 21L15 22L16 22L16 21ZM3 22L3 23L4 23L4 22ZM22 22L22 23L23 23L23 22ZM14 23L14 24L15 24L15 23ZM2 27L2 29L5 29L5 28L3 28L3 27ZM6 28L6 29L7 29L7 28ZM29 29L29 32L32 32L32 29ZM33 29L33 30L34 30L34 29ZM9 30L9 31L10 31L10 30ZM20 30L20 31L19 31L19 32L20 32L20 33L21 33L21 32L23 32L23 30ZM30 30L30 31L31 31L31 30ZM20 31L20 32L21 32L21 31ZM34 31L34 32L33 32L33 33L34 33L34 34L30 34L30 33L29 33L29 34L30 34L30 35L31 35L31 36L32 36L32 35L34 35L34 36L36 36L36 35L35 35L35 33L34 33L34 32L35 32L35 31ZM17 32L17 33L18 33L18 32ZM17 35L17 36L18 36L18 35ZM0 0L0 7L7 7L7 0ZM1 1L1 6L6 6L6 1ZM2 2L2 5L5 5L5 2ZM30 0L30 7L37 7L37 0ZM31 1L31 6L36 6L36 1ZM32 2L32 5L35 5L35 2ZM0 30L0 37L7 37L7 30ZM1 31L1 36L6 36L6 31ZM2 32L2 35L5 35L5 32Z" fill="#000000"/></g></g></svg>
