<?xml version="1.0" encoding="UTF-8"?>
<svg xmlns="http://www.w3.org/2000/svg" version="1.1" width="150" height="150" viewBox="0 0 150 150"><rect x="0" y="0" width="150" height="150" fill="#ffffff"/><g transform="scale(4.054)"><g transform="translate(0,0)"><path fill-rule="evenodd" d="M10 0L10 2L11 2L11 0ZM12 0L12 1L13 1L13 2L12 2L12 4L16 4L16 5L15 5L15 6L14 6L14 5L11 5L11 6L10 6L10 4L11 4L11 3L8 3L8 4L9 4L9 5L8 5L8 7L9 7L9 8L6 8L6 9L7 9L7 10L5 10L5 8L0 8L0 9L3 9L3 10L2 10L2 12L1 12L1 13L0 13L0 14L1 14L1 15L0 15L0 16L2 16L2 13L3 13L3 14L4 14L4 16L3 16L3 18L2 18L2 19L1 19L1 20L0 20L0 24L1 24L1 23L4 23L4 24L5 24L5 26L6 26L6 27L4 27L4 25L3 25L3 27L4 27L4 28L2 28L2 29L5 29L5 28L6 28L6 29L7 29L7 28L8 28L8 27L9 27L9 28L11 28L11 27L10 27L10 26L9 26L9 25L8 25L8 24L6 24L6 23L7 23L7 22L9 22L9 23L10 23L10 21L9 21L9 19L10 19L10 16L11 16L11 17L12 17L12 18L15 18L15 19L14 19L14 20L13 20L13 19L12 19L12 21L16 21L16 22L15 22L15 23L14 23L14 22L11 22L11 25L12 25L12 28L13 28L13 27L14 27L14 26L15 26L15 28L14 28L14 31L16 31L16 30L17 30L17 29L18 29L18 31L19 31L19 30L20 30L20 32L14 32L14 34L13 34L13 35L14 35L14 34L15 34L15 35L16 35L16 36L17 36L17 37L18 37L18 36L17 36L17 35L18 35L18 34L20 34L20 35L19 35L19 37L20 37L20 36L22 36L22 37L23 37L23 35L21 35L21 34L22 34L22 33L23 33L23 34L25 34L25 35L26 35L26 36L24 36L24 37L27 37L27 35L28 35L28 36L29 36L29 37L30 37L30 35L28 35L28 34L29 34L29 33L30 33L30 34L34 34L34 33L35 33L35 32L34 32L34 31L37 31L37 30L35 30L35 28L34 28L34 27L36 27L36 28L37 28L37 26L36 26L36 25L37 25L37 22L36 22L36 21L37 21L37 18L36 18L36 17L37 17L37 14L36 14L36 13L35 13L35 12L34 12L34 11L35 11L35 9L36 9L36 8L35 8L35 9L34 9L34 8L33 8L33 9L34 9L34 11L32 11L32 10L31 10L31 11L32 11L32 12L30 12L30 13L28 13L28 14L27 14L27 11L28 11L28 12L29 12L29 10L30 10L30 8L27 8L27 9L28 9L28 10L26 10L26 8L25 8L25 6L26 6L26 7L27 7L27 6L28 6L28 7L29 7L29 6L28 6L28 5L29 5L29 4L28 4L28 3L29 3L29 2L28 2L28 1L29 1L29 0L28 0L28 1L26 1L26 3L23 3L23 2L22 2L22 1L20 1L20 0L15 0L15 1L14 1L14 0ZM23 0L23 1L24 1L24 2L25 2L25 1L24 1L24 0ZM8 1L8 2L9 2L9 1ZM16 1L16 2L13 2L13 3L16 3L16 4L17 4L17 8L15 8L15 7L16 7L16 6L15 6L15 7L14 7L14 6L13 6L13 7L12 7L12 6L11 6L11 7L12 7L12 9L11 9L11 8L10 8L10 9L11 9L11 10L9 10L9 9L8 9L8 10L7 10L7 11L5 11L5 12L3 12L3 13L4 13L4 14L5 14L5 12L7 12L7 11L10 11L10 13L9 13L9 12L8 12L8 13L9 13L9 15L8 15L8 14L7 14L7 13L6 13L6 14L7 14L7 15L6 15L6 16L8 16L8 17L9 17L9 15L10 15L10 13L11 13L11 14L13 14L13 15L12 15L12 17L13 17L13 16L14 16L14 17L15 17L15 18L16 18L16 19L15 19L15 20L18 20L18 21L17 21L17 24L16 24L16 25L15 25L15 26L16 26L16 27L17 27L17 28L16 28L16 29L15 29L15 30L16 30L16 29L17 29L17 28L18 28L18 29L22 29L22 28L21 28L21 27L20 27L20 26L19 26L19 23L21 23L21 22L23 22L23 24L24 24L24 23L25 23L25 24L27 24L27 26L28 26L28 28L27 28L27 27L25 27L25 26L26 26L26 25L24 25L24 26L23 26L23 25L22 25L22 24L20 24L20 25L22 25L22 27L25 27L25 28L23 28L23 29L24 29L24 30L21 30L21 31L22 31L22 32L20 32L20 34L21 34L21 33L22 33L22 32L26 32L26 31L27 31L27 32L28 32L28 30L27 30L27 29L28 29L28 28L30 28L30 26L31 26L31 28L32 28L32 27L33 27L33 25L34 25L34 26L35 26L35 25L34 25L34 24L36 24L36 23L35 23L35 22L33 22L33 21L34 21L34 20L36 20L36 19L35 19L35 17L36 17L36 14L35 14L35 15L34 15L34 13L30 13L30 14L29 14L29 15L30 15L30 16L27 16L27 17L24 17L24 16L26 16L26 15L27 15L27 14L26 14L26 13L25 13L25 14L23 14L23 15L22 15L22 16L20 16L20 17L21 17L21 18L19 18L19 16L18 16L18 15L20 15L20 14L18 14L18 13L19 13L19 11L22 11L22 12L20 12L20 13L22 13L22 12L23 12L23 11L24 11L24 12L26 12L26 10L25 10L25 9L24 9L24 8L23 8L23 9L22 9L22 8L21 8L21 7L22 7L22 6L21 6L21 7L20 7L20 5L19 5L19 2L20 2L20 1ZM17 3L17 4L18 4L18 3ZM20 3L20 4L22 4L22 5L23 5L23 7L24 7L24 6L25 6L25 5L26 5L26 6L27 6L27 5L28 5L28 4L27 4L27 5L26 5L26 4L24 4L24 5L23 5L23 4L22 4L22 3ZM18 5L18 8L17 8L17 9L15 9L15 8L13 8L13 9L12 9L12 10L13 10L13 11L12 11L12 13L15 13L15 12L16 12L16 11L17 11L17 9L18 9L18 10L21 10L21 9L20 9L20 8L19 8L19 5ZM9 6L9 7L10 7L10 6ZM18 8L18 9L19 9L19 8ZM31 8L31 9L32 9L32 8ZM14 9L14 11L13 11L13 12L15 12L15 9ZM23 9L23 10L22 10L22 11L23 11L23 10L24 10L24 9ZM0 10L0 11L1 11L1 10ZM36 10L36 11L37 11L37 10ZM17 12L17 13L16 13L16 14L14 14L14 16L15 16L15 15L16 15L16 16L17 16L17 17L18 17L18 16L17 16L17 13L18 13L18 12ZM25 14L25 15L26 15L26 14ZM30 14L30 15L31 15L31 16L30 16L30 17L29 17L29 18L26 18L26 20L25 20L25 21L26 21L26 22L25 22L25 23L26 23L26 22L27 22L27 23L28 23L28 24L29 24L29 22L30 22L30 25L28 25L28 26L30 26L30 25L31 25L31 24L32 24L32 25L33 25L33 24L34 24L34 23L33 23L33 22L32 22L32 23L31 23L31 22L30 22L30 21L33 21L33 20L34 20L34 19L33 19L33 20L31 20L31 19L32 19L32 18L30 18L30 17L31 17L31 16L32 16L32 17L33 17L33 18L34 18L34 17L35 17L35 16L34 16L34 15L33 15L33 14L32 14L32 15L31 15L31 14ZM4 16L4 20L3 20L3 19L2 19L2 20L3 20L3 22L4 22L4 21L6 21L6 22L7 22L7 21L8 21L8 20L7 20L7 19L6 19L6 18L7 18L7 17L6 17L6 18L5 18L5 16ZM33 16L33 17L34 17L34 16ZM0 17L0 18L1 18L1 17ZM23 17L23 18L22 18L22 19L20 19L20 21L18 21L18 23L19 23L19 22L21 22L21 20L22 20L22 21L23 21L23 22L24 22L24 21L23 21L23 18L24 18L24 19L25 19L25 18L24 18L24 17ZM8 18L8 19L9 19L9 18ZM17 18L17 19L18 19L18 20L19 20L19 18ZM29 18L29 21L30 21L30 18ZM5 19L5 20L6 20L6 21L7 21L7 20L6 20L6 19ZM27 19L27 20L28 20L28 19ZM27 21L27 22L28 22L28 21ZM12 23L12 24L13 24L13 26L14 26L14 23ZM17 24L17 25L16 25L16 26L17 26L17 27L18 27L18 28L19 28L19 26L18 26L18 24ZM0 25L0 29L1 29L1 25ZM6 25L6 26L7 26L7 27L6 27L6 28L7 28L7 27L8 27L8 25ZM25 28L25 30L26 30L26 29L27 29L27 28ZM8 29L8 31L9 31L9 30L10 30L10 32L12 32L12 33L13 33L13 32L12 32L12 31L13 31L13 30L12 30L12 29ZM29 29L29 32L32 32L32 29ZM33 29L33 30L34 30L34 29ZM11 30L11 31L12 31L12 30ZM30 30L30 31L31 31L31 30ZM8 32L8 37L9 37L9 32ZM33 32L33 33L34 33L34 32ZM36 32L36 33L37 33L37 32ZM10 33L10 37L13 37L13 36L11 36L11 33ZM15 33L15 34L16 34L16 33ZM25 33L25 34L26 34L26 35L27 35L27 34L28 34L28 33ZM35 34L35 35L36 35L36 36L34 36L34 35L32 35L32 36L31 36L31 37L32 37L32 36L34 36L34 37L37 37L37 34ZM14 36L14 37L15 37L15 36ZM0 0L0 7L7 7L7 0ZM1 1L1 6L6 6L6 1ZM2 2L2 5L5 5L5 2ZM30 0L30 7L37 7L37 0ZM31 1L31 6L36 6L36 1ZM32 2L32 5L35 5L35 2ZM0 30L0 37L7 37L7 30ZM1 31L1 36L6 36L6 31ZM2 32L2 35L5 35L5 32Z" fill="#000000"/></g></g></svg>
